HIERARCHY
ROOT hip
{
  OFFSET -4.61556 83.7634 35.1154
  CHANNELS 6 Xposition Yposition Zposition Zrotation Xrotation Yrotation
  JOINT abdomen
  {
    OFFSET 0 20.6881 -0.73152
    CHANNELS 3 Zrotation Xrotation Yrotation
    JOINT chest
    {
      OFFSET 0 11.7043 -0.48768
      CHANNELS 3 Zrotation Xrotation Yrotation
      JOINT neck
      {
        OFFSET 0 22.1894 -2.19456
        CHANNELS 3 Zrotation Xrotation Yrotation
        JOINT head
        {
          OFFSET -0.24384 7.07133 1.2192
          CHANNELS 3 Zrotation Xrotation Yrotation
          JOINT leftEye
          {
            OFFSET 4.14528 8.04674 8.04672
            CHANNELS 3 Zrotation Xrotation Yrotation
            End Site
            {
              OFFSET 1 0 0
            }
          }
          JOINT rightEye
          {
            OFFSET -3.6576 8.04674 8.04672
            CHANNELS 3 Zrotation Xrotation Yrotation
            End Site
            {
              OFFSET 1 0 0
            }
          }
        }
      }
      JOINT rCollar
      {
        OFFSET -2.68224 19.2634 -4.8768
        CHANNELS 3 Zrotation Xrotation Yrotation
        JOINT rShldr
        {
          OFFSET -8.77824 -1.95073 1.46304
          CHANNELS 3 Zrotation Xrotation Yrotation
          JOINT rForeArm
          {
            OFFSET -28.1742 -1.7115 0.48768
            CHANNELS 3 Zrotation Xrotation Yrotation
            JOINT rHand
            {
              OFFSET -22.5879 0.773209 7.07136
              CHANNELS 3 Zrotation Xrotation Yrotation
              JOINT rThumb1
              {
                OFFSET -1.2192 -0.487915 3.41376
                CHANNELS 3 Zrotation Xrotation Yrotation
                JOINT rThumb2
                {
                  OFFSET -3.37035 -0.52449 3.41376
                  CHANNELS 3 Zrotation Xrotation Yrotation
                  End Site
                  {
                    OFFSET -1.78271 -1.18214 1.43049
                  }
                }
              }
              JOINT rIndex1
              {
                OFFSET -7.75947 0.938293 5.60832
                CHANNELS 3 Zrotation Xrotation Yrotation
                JOINT rIndex2
                {
                  OFFSET -2.54057 -0.884171 1.56538
                  CHANNELS 3 Zrotation Xrotation Yrotation
                  End Site
                  {
                    OFFSET -1.62519 -0.234802 1.16502
                  }
                }
              }
              JOINT rMid1
              {
                OFFSET -8.24714 1.18213 3.41376
                CHANNELS 3 Zrotation Xrotation Yrotation
                JOINT rMid2
                {
                  OFFSET -3.10165 -0.590103 1.0647
                  CHANNELS 3 Zrotation Xrotation Yrotation
                  End Site
                  {
                    OFFSET -2.48547 -0.328903 0.83742
                  }
                }
              }
              JOINT rRing1
              {
                OFFSET -8.82822 0.546677 1.51678
                CHANNELS 3 Zrotation Xrotation Yrotation
                JOINT rRing2
                {
                  OFFSET -2.60934 -0.819778 -0.0198488
                  CHANNELS 3 Zrotation Xrotation Yrotation
                  End Site
                  {
                    OFFSET -2.33842 -0.294052 0.168128
                  }
                }
              }
              JOINT rPinky1
              {
                OFFSET -8.27202 -0.0477905 -0.4584
                CHANNELS 3 Zrotation Xrotation Yrotation
                JOINT rPinky2
                {
                  OFFSET -1.82734 -0.647385 -0.700984
                  CHANNELS 3 Zrotation Xrotation Yrotation
                  End Site
                  {
                    OFFSET -1.69225 -0.51767 -0.607171
                  }
                }
              }
            }
          }
        }
      }
      JOINT lCollar
      {
        OFFSET 2.68224 19.2634 -4.8768
        CHANNELS 3 Zrotation Xrotation Yrotation
        JOINT lShldr
        {
          OFFSET 8.77824 -1.95073 1.46304
          CHANNELS 3 Zrotation Xrotation Yrotation
          JOINT lForeArm
          {
            OFFSET 28.1742 -1.7115 0.48768
            CHANNELS 3 Zrotation Xrotation Yrotation
            JOINT lHand
            {
              OFFSET 22.5879 0.773209 7.07136
              CHANNELS 3 Zrotation Xrotation Yrotation
              JOINT lThumb1
              {
                OFFSET 1.2192 -0.487915 3.41376
                CHANNELS 3 Zrotation Xrotation Yrotation
                JOINT lThumb2
                {
                  OFFSET 3.37035 -0.52449 3.41376
                  CHANNELS 3 Zrotation Xrotation Yrotation
                  End Site
                  {
                    OFFSET 1.78271 -1.18214 1.43049
                  }
                }
              }
              JOINT lIndex1
              {
                OFFSET 7.75947 0.938293 5.60832
                CHANNELS 3 Zrotation Xrotation Yrotation
                JOINT lIndex2
                {
                  OFFSET 2.54057 -0.884171 1.56538
                  CHANNELS 3 Zrotation Xrotation Yrotation
                  End Site
                  {
                    OFFSET 1.62519 -0.234802 1.16502
                  }
                }
              }
              JOINT lMid1
              {
                OFFSET 8.24714 1.18213 3.41376
                CHANNELS 3 Zrotation Xrotation Yrotation
                JOINT lMid2
                {
                  OFFSET 3.10165 -0.590103 1.0647
                  CHANNELS 3 Zrotation Xrotation Yrotation
                  End Site
                  {
                    OFFSET 2.48547 -0.328903 0.83742
                  }
                }
              }
              JOINT lRing1
              {
                OFFSET 8.82822 0.546677 1.51678
                CHANNELS 3 Zrotation Xrotation Yrotation
                JOINT lRing2
                {
                  OFFSET 2.60934 -0.819778 -0.0198488
                  CHANNELS 3 Zrotation Xrotation Yrotation
                  End Site
                  {
                    OFFSET 2.33842 -0.294052 0.168128
                  }
                }
              }
              JOINT lPinky1
              {
                OFFSET 8.27202 -0.0477905 -0.4584
                CHANNELS 3 Zrotation Xrotation Yrotation
                JOINT lPinky2
                {
                  OFFSET 1.82734 -0.647385 -0.700984
                  CHANNELS 3 Zrotation Xrotation Yrotation
                  End Site
                  {
                    OFFSET 1.69225 -0.51767 -0.607171
                  }
                }
              }
            }
          }
        }
      }
    }
  }
  JOINT rButtock
  {
    OFFSET -8.77824 4.35084 1.2192
    CHANNELS 3 Zrotation Xrotation Yrotation
    JOINT rThigh
    {
      OFFSET 0 -1.70687 -2.19456
      CHANNELS 3 Zrotation Xrotation Yrotation
      JOINT rShin
      {
        OFFSET 0 -36.8199 0.73152
        CHANNELS 3 Zrotation Xrotation Yrotation
        JOINT rFoot
        {
          OFFSET 0.73152 -45.1104 -5.12064
          CHANNELS 3 Zrotation Xrotation Yrotation
          End Site
          {
            OFFSET -1.1221 -3.69964 12.103
          }
        }
      }
    }
  }
  JOINT lButtock
  {
    OFFSET 8.77824 4.35084 1.2192
    CHANNELS 3 Zrotation Xrotation Yrotation
    JOINT lThigh
    {
      OFFSET 0 -1.70687 -2.19456
      CHANNELS 3 Zrotation Xrotation Yrotation
      JOINT lShin
      {
        OFFSET 0 -36.8199 0.73152
        CHANNELS 3 Zrotation Xrotation Yrotation
        JOINT lFoot
        {
          OFFSET -0.73152 -45.1104 -5.12064
          CHANNELS 3 Zrotation Xrotation Yrotation
          End Site
          {
            OFFSET 1.1221 -3.69964 12.103
          }
        }
      }
    }
  }
}
MOTION
Frames:	6
Frame Time:	0.00833333
-4.97746 83.8928 34.025 -1.39449 1.28988 -3.69175 -0.951948 5.75247 6.6641 0.367733 -2.19079 1.88059 -2.37859 4.24609 -5.05025 8.09164 15.9991 -10.4975 -0 0 0 -0 0 0 -1.33868e-014 -5.97827e-014 2.93695e-013 66.3169 57.8814 17.1267 -28.1877 -31.8687 70.2296 -2.10683 37.4406 6.18414 8.79698e-010 2.20196e-009 4.15176e-010 1.52598e-009 3.85757e-009 6.90655e-010 8.79709e-010 2.20197e-009 4.15166e-010 7.73091 5.47488 0.417314 8.79696e-010 2.20197e-009 4.15177e-010 2.90554 0.965183 0.102902 8.79704e-010 2.20197e-009 4.1518e-010 10.2786 0.731801 0.0259123 8.79692e-010 2.20197e-009 4.15187e-010 2.22167 -0.733487 -0.20892 -1.33879e-014 -5.97865e-014 2.93583e-013 -70.8748 51.3314 -11.9227 28.295 -32.8226 -71.7734 0.0206937 4.16587 -0.586467 -1.78268e-010 3.2039e-009 -1.29713e-010 -3.10401e-010 5.54534e-009 -2.25168e-010 -1.78276e-010 3.2039e-009 -1.29702e-010 -7.73091 5.47488 -0.417314 -1.7827e-010 3.20391e-009 -1.29711e-010 -2.90554 0.965183 -0.102902 -1.78279e-010 3.2039e-009 -1.29713e-010 -10.2786 0.731801 -0.0259123 -1.78265e-010 3.2039e-009 -1.29725e-010 -2.22167 -0.733487 0.20892 -2.03217e-016 0 -3.88251e-019 -21.5896 -2.94639 -0.0136632 -0.000671913 -0.662435 -0.00537988 0.434836 3.60486 -0.00455071 2.03217e-016 0 3.88251e-019 8.66137 -8.28821 -3.07281 0.0469256 21.9052 -0.581711 6.04592 -17.8208 18.0568 
-4.96645 83.8964 34.0519 -1.35299 1.2877 -3.6684 -1.04556 5.70085 6.71026 0.42458 -2.18069 1.89364 -3.00207 4.37441 -5.46367 8.74974 16.1362 -11.2923 -0 0 0 -0 0 0 -2.06061e-014 -2.19335e-014 3.40776e-013 65.8454 57.8585 17.3265 -28.1518 -31.6044 69.8116 -2.11706 37.5044 6.19932 3.63402e-010 3.27276e-010 5.97871e-010 6.39846e-010 6.20883e-010 1.02045e-009 3.63419e-010 3.27276e-010 5.97861e-010 7.73091 5.47488 0.417314 3.634e-010 3.27276e-010 5.97873e-010 2.90554 0.965183 0.102902 3.63408e-010 3.27277e-010 5.97876e-010 10.2786 0.731801 0.0259123 3.63399e-010 3.27279e-010 5.97883e-010 2.22167 -0.733487 -0.20892 -2.05902e-014 -2.19358e-014 3.40606e-013 -70.3862 52.6792 -13.0751 28.3214 -33.1095 -72.2385 0.0158963 3.64001 -0.512234 1.80216e-010 -4.89926e-009 -8.00451e-010 3.06474e-010 -8.46113e-009 -1.38642e-009 1.80211e-010 -4.89927e-009 -8.00446e-010 -7.73091 5.47488 -0.417314 1.80216e-010 -4.89925e-009 -8.00449e-010 -2.90554 0.965183 -0.102902 1.80206e-010 -4.89926e-009 -8.00452e-010 -10.2786 0.731801 -0.0259123 1.80222e-010 -4.89926e-009 -8.00466e-010 -2.22167 -0.733487 0.20892 -2.03217e-016 0 -3.88251e-019 -21.5873 -2.94729 -0.0137116 -0.000681613 -0.660156 -0.00546919 0.433241 3.60348 -0.00433752 2.03217e-016 0 3.88251e-019 8.60514 -8.29668 -3.06497 0.047004 21.9045 -0.581572 6.04135 -17.7835 18.0666 
-4.94476 83.8964 34.0626 -1.3309 1.2791 -3.62345 -1.07735 5.69075 6.72516 0.40797 -2.20488 1.89717 -3.57838 4.55868 -5.86933 9.36549 16.1735 -12.0739 -0 0 0 -0 0 0 -2.16285e-014 7.15702e-015 3.40419e-013 65.0588 58.0182 17.6148 -28.136 -31.4951 69.6417 -2.00341 36.7556 6.02533 -9.19339e-011 -1.17362e-009 6.87563e-010 -1.43423e-010 -1.97622e-009 1.18736e-009 -9.19156e-011 -1.17363e-009 6.87553e-010 7.73091 5.47488 0.417314 -9.19361e-011 -1.17362e-009 6.87566e-010 2.90554 0.965183 0.102902 -9.19285e-011 -1.17362e-009 6.87568e-010 10.2786 0.731801 0.0259123 -9.19361e-011 -1.17362e-009 6.87575e-010 2.22167 -0.733487 -0.20892 -2.16086e-014 7.15567e-015 3.4022e-013 -69.7101 53.9663 -14.3691 28.3343 -33.279 -72.5235 0.0123675 3.17348 -0.446465 3.96073e-010 -9.81147e-009 -1.20305e-009 6.78239e-010 -1.69529e-008 -2.08331e-009 3.96068e-010 -9.81149e-009 -1.20305e-009 -7.73091 5.47488 -0.417314 3.96073e-010 -9.81147e-009 -1.20305e-009 -2.90554 0.965183 -0.102902 3.96063e-010 -9.81147e-009 -1.20306e-009 -10.2786 0.731801 -0.0259123 3.9608e-010 -9.81148e-009 -1.20307e-009 -2.22167 -0.733487 0.20892 -2.03217e-016 0 -3.88251e-019 -21.5849 -2.94934 -0.0137662 -0.000690589 -0.655397 -0.0055558 0.432314 3.60078 -0.00423704 2.03217e-016 0 3.88251e-019 8.55327 -8.32952 -3.09558 0.0473237 21.9326 -0.582357 6.04286 -17.7625 18.0794 
-4.91324 83.896 34.0639 -1.33535 1.25629 -3.55033 -1.02056 5.75436 6.70933 0.272986 -2.29153 1.89075 -4.10417 4.82512 -6.28146 9.95232 16.0708 -12.8694 -0 0 0 -0 0 0 -1.22193e-014 2.56438e-014 2.59197e-013 63.7861 58.5334 18.1284 -28.1418 -31.5559 69.7564 -1.73726 34.7993 5.59353 -5.19677e-010 -2.27938e-009 6.34786e-010 -8.82553e-010 -3.9016e-009 1.10628e-009 -5.19662e-010 -2.27939e-009 6.34778e-010 7.73091 5.47488 0.417314 -5.19679e-010 -2.27938e-009 6.34787e-010 2.90554 0.965183 0.102902 -5.19673e-010 -2.27938e-009 6.34789e-010 10.2786 0.731801 0.0259123 -5.1968e-010 -2.27938e-009 6.34796e-010 2.22167 -0.733487 -0.20892 -1.22165e-014 2.56426e-014 2.59025e-013 -68.7614 55.2107 -15.8949 28.3337 -33.2829 -72.5359 0.00909078 2.71767 -0.382242 4.00038e-010 -1.00448e-008 -1.21647e-009 6.85965e-010 -1.73586e-008 -2.10611e-009 4.00033e-010 -1.00448e-008 -1.21646e-009 -7.73091 5.47488 -0.417314 4.00039e-010 -1.00448e-008 -1.21646e-009 -2.90554 0.965183 -0.102902 4.00029e-010 -1.00448e-008 -1.21647e-009 -10.2786 0.731801 -0.0259123 4.00043e-010 -1.00448e-008 -1.21648e-009 -2.22167 -0.733487 0.20892 -2.03217e-016 0 -3.88251e-019 -21.582 -2.95336 -0.0138364 -0.000699587 -0.64677 -0.00564847 0.432276 3.59623 -0.00428814 2.03217e-016 0 3.88251e-019 8.50448 -8.39357 -3.18143 0.0480378 22.0043 -0.584583 6.05446 -17.7652 18.0992 
-4.87719 83.9037 34.0785 -1.35353 1.22859 -3.46434 -0.89881 5.86954 6.66671 0.0474041 -2.42732 1.87575 -4.59277 5.14946 -6.69458 10.5127 15.8745 -13.6674 -0 0 0 -0 0 0 4.49247e-015 3.8863e-014 1.21333e-013 62.1223 59.3104 18.8219 -28.162 -31.736 70.073 -1.41584 31.9803 5.01852 -9.68788e-010 -3.25175e-009 4.94384e-010 -1.66064e-009 -5.60413e-009 8.73671e-010 -9.68779e-010 -3.25175e-009 4.94379e-010 7.73091 5.47488 0.417314 -9.6879e-010 -3.25175e-009 4.94381e-010 2.90554 0.965183 0.102902 -9.68784e-010 -3.25175e-009 4.94383e-010 10.2786 0.731801 0.0259123 -9.68791e-010 -3.25175e-009 4.94389e-010 2.22167 -0.733487 -0.20892 4.46557e-015 3.88614e-014 1.21218e-013 -67.5788 56.3849 -17.6305 28.3246 -33.1668 -72.3432 0.00620472 2.24962 -0.316336 2.69253e-010 -7.59622e-009 -9.92901e-010 4.6221e-010 -1.31285e-008 -1.71838e-009 2.69247e-010 -7.59622e-009 -9.9289e-010 -7.73091 5.47488 -0.417314 2.69254e-010 -7.59621e-009 -9.92898e-010 -2.90554 0.965183 -0.102902 2.69243e-010 -7.59622e-009 -9.92901e-010 -10.2786 0.731801 -0.0259123 2.69254e-010 -7.59622e-009 -9.92911e-010 -2.22167 -0.733487 0.20892 -2.03217e-016 0 -3.88251e-019 -21.5785 -2.95862 -0.013921 -0.000710114 -0.63525 -0.00575928 0.432599 3.59006 -0.00441135 2.03217e-016 0 3.88251e-019 8.4466 -8.4889 -3.31395 0.0490418 22.1099 -0.588075 6.08081 -17.7886 18.1392 
-4.82569 83.9038 34.0208 -1.37895 1.2065 -3.36876 -0.754395 5.9805 6.59313 -0.188665 -2.55889 1.85207 -5.03755 5.49041 -7.0815 10.9992 15.6443 -14.4108 -0 0 0 -0 0 0 2.13255e-014 4.69635e-014 -1.61334e-014 60.3443 60.0259 19.4566 -28.2004 -32.0416 70.5684 -1.13295 28.92 4.44418 -1.32747e-009 -3.94245e-009 3.36524e-010 -2.28323e-009 -6.81946e-009 6.08664e-010 -1.32747e-009 -3.94245e-009 3.36521e-010 7.73091 5.47488 0.417314 -1.32747e-009 -3.94245e-009 3.36517e-010 2.90554 0.965183 0.102902 -1.32747e-009 -3.94245e-009 3.36519e-010 10.2786 0.731801 0.0259123 -1.32748e-009 -3.94244e-009 3.36524e-010 2.22167 -0.733487 -0.20892 2.12686e-014 4.69615e-014 -1.61959e-014 -66.289 57.4512 -19.421 28.3116 -33.0139 -72.0914 0.00447146 1.89597 -0.266566 1.01703e-010 -4.3158e-009 -6.90572e-010 1.75146e-010 -7.46015e-009 -1.19436e-009 1.01696e-010 -4.31579e-009 -6.90556e-010 -7.73091 5.47488 -0.417314 1.01705e-010 -4.31577e-009 -6.90569e-010 -2.90554 0.965183 -0.102902 1.01693e-010 -4.31579e-009 -6.90571e-010 -10.2786 0.731801 -0.0259123 1.01701e-010 -4.3158e-009 -6.90578e-010 -2.22167 -0.733487 0.20892 -2.03217e-016 0 -3.88251e-019 -21.5752 -2.96381 -0.0140002 -0.000719318 -0.623231 -0.00585948 0.433179 3.58331 -0.0045788 2.03217e-016 0 3.88251e-019 8.39089 -8.59999 -3.46194 0.0500887 22.2229 -0.591813 6.10947 -17.8182 18.1803 
